{
  "accessors": [
    {
      "bufferView": 2,
      "componentType": 5126,
      "count": 566,
      "max": [
        15.0,
        7.5,
        18.976587295532227
      ],
      "min": [
        -15.0,
        -7.5,
        10.41336441040039
      ],
      "type": "VEC3"
    },
    {
      "bufferView": 2,
      "byteOffset": 6792,
      "componentType": 5126,
      "count": 566,
      "max": [
        1.0,
        1.0,
        1.0
      ],
      "min": [
        -1.0,
        -1.0,
        -1.0
      ],
      "type": "VEC3"
    },
    {
      "bufferView": 3,
      "componentType": 5126,
      "count": 566,
      "max": [
        1.0,
        0.5768445730209351,
        0.8193549513816833,
        1.0
      ],
      "min": [
        -1.0,
        -0.5768316388130188,
        -1.0,
        1.0
      ],
      "type": "VEC4"
    },
    {
      "bufferView": 1,
      "componentType": 5126,
      "count": 566,
      "max": [
        0.956623375415802,
        0.979686439037323
      ],
      "min": [
        0.019999999552965164,
        0.019999999552965164
      ],
      "type": "VEC2"
    },
    {
      "bufferView": 0,
      "componentType": 5125,
      "count": 1596,
      "type": "SCALAR"
    },
    {
      "bufferView": 2,
      "byteOffset": 13584,
      "componentType": 5126,
      "count": 144,
      "max": [
        15.0,
        4.285400390625,
        17.21676254272461
      ],
      "min": [
        -15.0,
        -5.117744445800781,
        3.0187807083129883
      ],
      "type": "VEC3"
    },
    {
      "bufferView": 2,
      "byteOffset": 15312,
      "componentType": 5126,
      "count": 144,
      "max": [
        0.9997449517250061,
        0.9992484450340271,
        0.9994513988494873
      ],
      "min": [
        -0.9997450113296509,
        -0.9998432397842407,
        -0.9994592666625977
      ],
      "type": "VEC3"
    },
    {
      "bufferView": 3,
      "byteOffset": 9056,
      "componentType": 5126,
      "count": 144,
      "max": [
        1.0,
        0.7070567607879639,
        0.0003618347691372037,
        1.0
      ],
      "min": [
        -1.0,
        -0.7070571184158325,
        -1.0,
        1.0
      ],
      "type": "VEC4"
    },
    {
      "bufferView": 1,
      "byteOffset": 4528,
      "componentType": 5126,
      "count": 144,
      "max": [
        0.7997713088989258,
        0.9479215145111084
      ],
      "min": [
        0.019999999552965164,
        0.33143603801727295
      ],
      "type": "VEC2"
    },
    {
      "bufferView": 0,
      "byteOffset": 6384,
      "componentType": 5125,
      "count": 384,
      "type": "SCALAR"
    },
    {
      "bufferView": 2,
      "byteOffset": 17040,
      "componentType": 5126,
      "count": 788,
      "max": [
        13.774999618530273,
        6.015625,
        10.41336441040039
      ],
      "min": [
        -13.774999618530273,
        -6.015625,
        0.4133644104003906
      ],
      "type": "VEC3"
    },
    {
      "bufferView": 2,
      "byteOffset": 26496,
      "componentType": 5126,
      "count": 788,
      "max": [
        1.0,
        0.9994462132453918,
        0.0002225573407486081
      ],
      "min": [
        -1.0,
        -0.9994462132453918,
        -1.0
      ],
      "type": "VEC3"
    },
    {
      "bufferView": 3,
      "byteOffset": 11360,
      "componentType": 5126,
      "count": 788,
      "max": [
        1.0,
        1.0,
        0.7294759154319763,
        1.0
      ],
      "min": [
        -0.99953293800354,
        -0.9999999403953552,
        -0.7294667959213257,
        1.0
      ],
      "type": "VEC4"
    },
    {
      "bufferView": 1,
      "byteOffset": 5680,
      "componentType": 5126,
      "count": 788,
      "max": [
        0.9695904850959778,
        0.9799999594688416
      ],
      "min": [
        0.5087814927101135,
        0.22762401401996613
      ],
      "type": "VEC2"
    },
    {
      "bufferView": 0,
      "byteOffset": 7920,
      "componentType": 5125,
      "count": 2868,
      "type": "SCALAR"
    }
  ],
  "asset": {
    "extras": {
      "author": "sharkbitestudios (https://sketchfab.com/sharkbitestudios)",
      "license": "CC-BY-4.0 (http://creativecommons.org/licenses/by/4.0/)",
      "source": "https://sketchfab.com/3d-models/medieval-table-2-13a10a54123e40b99029e7851945b5f3",
      "title": "Medieval Table 2"
    },
    "generator": "Sketchfab-12.65.0",
    "version": "2.0"
  },
  "bufferViews": [
    {
      "buffer": 0,
      "byteLength": 19392,
      "name": "floatBufferViews",
      "target": 34963
    },
    {
      "buffer": 0,
      "byteLength": 11984,
      "byteOffset": 19392,
      "byteStride": 8,
      "name": "floatBufferViews",
      "target": 34962
    },
    {
      "buffer": 0,
      "byteLength": 35952,
      "byteOffset": 31376,
      "byteStride": 12,
      "name": "floatBufferViews",
      "target": 34962
    },
    {
      "buffer": 0,
      "byteLength": 23968,
      "byteOffset": 67328,
      "byteStride": 16,
      "name": "floatBufferViews",
      "target": 34962
    }
  ],
  "buffers": [
    {
      "byteLength": 91296,
      "uri": "scene.bin"
    }
  ],
  "images": [
    {
      "uri": "textures/Tabletop_baseColor.png"
    },
    {
      "uri": "textures/Tabletop_normal.png"
    },
    {
      "uri": "textures/Struts_baseColor.png"
    },
    {
      "uri": "textures/Struts_normal.png"
    },
    {
      "uri": "textures/Legs_baseColor.png"
    },
    {
      "uri": "textures/Legs_normal.png"
    }
  ],
  "materials": [
    {
      "doubleSided": true,
      "name": "Tabletop",
      "normalTexture": {
        "index": 1
      },
      "pbrMetallicRoughness": {
        "baseColorTexture": {
          "index": 0
        },
        "metallicFactor": 0.0,
        "roughnessFactor": 0.8929713596497552
      }
    },
    {
      "doubleSided": true,
      "name": "Struts",
      "normalTexture": {
        "index": 3
      },
      "pbrMetallicRoughness": {
        "baseColorTexture": {
          "index": 2
        },
        "metallicFactor": 0.0,
        "roughnessFactor": 0.8929713596497552
      }
    },
    {
      "doubleSided": true,
      "name": "Legs",
      "normalTexture": {
        "index": 5
      },
      "pbrMetallicRoughness": {
        "baseColorTexture": {
          "index": 4
        },
        "metallicFactor": 0.0,
        "roughnessFactor": 0.8929713596497552
      }
    }
  ],
  "meshes": [
    {
      "name": "Box001_Tabletop_0",
      "primitives": [
        {
          "attributes": {
            "NORMAL": 1,
            "POSITION": 0,
            "TANGENT": 2,
            "TEXCOORD_0": 3
          },
          "indices": 4,
          "material": 0,
          "mode": 4
        }
      ]
    },
    {
      "name": "Box001_Struts_0",
      "primitives": [
        {
          "attributes": {
            "NORMAL": 6,
            "POSITION": 5,
            "TANGENT": 7,
            "TEXCOORD_0": 8
          },
          "indices": 9,
          "material": 1,
          "mode": 4
        }
      ]
    },
    {
      "name": "Box001_Legs_0",
      "primitives": [
        {
          "attributes": {
            "NORMAL": 11,
            "POSITION": 10,
            "TANGENT": 12,
            "TEXCOORD_0": 13
          },
          "indices": 14,
          "material": 2,
          "mode": 4
        }
      ]
    }
  ],
  "nodes": [
    {
      "children": [
        1
      ],
      "matrix": [
        1.0,
        0.0,
        0.0,
        0.0,
        0.0,
        2.220446049250313e-16,
        -1.0,
        0.0,
        0.0,
        1.0,
        2.220446049250313e-16,
        0.0,
        0.0,
        0.0,
        0.0,
        1.0
      ],
      "name": "Sketchfab_model"
    },
    {
      "children": [
        2
      ],
      "matrix": [
        1.0,
        0.0,
        0.0,
        0.0,
        0.0,
        0.0,
        1.0,
        0.0,
        0.0,
        -1.0,
        0.0,
        0.0,
        0.0,
        0.0,
        0.0,
        1.0
      ],
      "name": "Table2.FBX"
    },
    {
      "children": [
        3
      ],
      "name": "RootNode"
    },
    {
      "children": [
        4,
        5,
        6
      ],
      "matrix": [
        2.5399999618530273,
        0.0,
        0.0,
        0.0,
        0.0,
        5.6399328803925005e-16,
        -2.5399999618530273,
        0.0,
        0.0,
        2.5399999618530273,
        5.6399328803925005e-16,
        0.0,
        0.0,
        0.0,
        0.0,
        1.0
      ],
      "name": "Box001"
    },
    {
      "mesh": 0,
      "name": "Box001_Tabletop_0"
    },
    {
      "mesh": 1,
      "name": "Box001_Struts_0"
    },
    {
      "mesh": 2,
      "name": "Box001_Legs_0"
    }
  ],
  "samplers": [
    {
      "magFilter": 9729,
      "minFilter": 9987,
      "wrapS": 10497,
      "wrapT": 10497
    }
  ],
  "scene": 0,
  "scenes": [
    {
      "name": "Sketchfab_Scene",
      "nodes": [
        0
      ]
    }
  ],
  "textures": [
    {
      "sampler": 0,
      "source": 0
    },
    {
      "sampler": 0,
      "source": 1
    },
    {
      "sampler": 0,
      "source": 2
    },
    {
      "sampler": 0,
      "source": 3
    },
    {
      "sampler": 0,
      "source": 4
    },
    {
      "sampler": 0,
      "source": 5
    }
  ]
}
