{
  "accessors": [
    {
      "bufferView": 2,
      "componentType": 5126,
      "count": 1997,
      "max": [
        0.4975558817386627,
        1.1867252588272095,
        0.8246511220932007
      ],
      "min": [
        -0.4971393346786499,
        -1.2085368633270264,
        -0.0007024407386779785
      ],
      "type": "VEC3"
    },
    {
      "bufferView": 2,
      "byteOffset": 23964,
      "componentType": 5126,
      "count": 1997,
      "max": [
        1.0,
        1.0,
        1.0
      ],
      "min": [
        -1.0,
        -1.0,
        -0.9999998211860657
      ],
      "type": "VEC3"
    },
    {
      "bufferView": 3,
      "componentType": 5126,
      "count": 1997,
      "max": [
        1.0,
        0.9998182058334351,
        1.0,
        1.0
      ],
      "min": [
        -1.0,
        -1.0,
        -0.9999999403953552,
        -1.0
      ],
      "type": "VEC4"
    },
    {
      "bufferView": 1,
      "componentType": 5126,
      "count": 1997,
      "max": [
        0.9979355931282043,
        0.9987433552742004
      ],
      "min": [
        0.001027006539516151,
        0.0008333795703947544
      ],
      "type": "VEC2"
    },
    {
      "bufferView": 1,
      "byteOffset": 15976,
      "componentType": 5126,
      "count": 1997,
      "max": [
        0.9979355931282043,
        0.9987433552742004
      ],
      "min": [
        0.001027006539516151,
        0.0008333795703947544
      ],
      "type": "VEC2"
    },
    {
      "bufferView": 1,
      "byteOffset": 31952,
      "componentType": 5126,
      "count": 1997,
      "max": [
        0.9979355931282043,
        0.9987433552742004
      ],
      "min": [
        0.001027006539516151,
        0.0008333795703947544
      ],
      "type": "VEC2"
    },
    {
      "bufferView": 1,
      "byteOffset": 47928,
      "componentType": 5126,
      "count": 1997,
      "max": [
        0.9979355931282043,
        0.9987433552742004
      ],
      "min": [
        0.001027006539516151,
        0.0008333795703947544
      ],
      "type": "VEC2"
    },
    {
      "bufferView": 1,
      "byteOffset": 63904,
      "componentType": 5126,
      "count": 1997,
      "max": [
        0.9979355931282043,
        0.9987433552742004
      ],
      "min": [
        0.001027006539516151,
        0.0008333795703947544
      ],
      "type": "VEC2"
    },
    {
      "bufferView": 1,
      "byteOffset": 79880,
      "componentType": 5126,
      "count": 1997,
      "max": [
        0.9979355931282043,
        0.9987433552742004
      ],
      "min": [
        0.001027006539516151,
        0.0008333795703947544
      ],
      "type": "VEC2"
    },
    {
      "bufferView": 1,
      "byteOffset": 95856,
      "componentType": 5126,
      "count": 1997,
      "max": [
        0.9979355931282043,
        0.9987433552742004
      ],
      "min": [
        0.001027006539516151,
        0.0008333795703947544
      ],
      "type": "VEC2"
    },
    {
      "bufferView": 1,
      "byteOffset": 111832,
      "componentType": 5126,
      "count": 1997,
      "max": [
        0.9979355931282043,
        0.9987433552742004
      ],
      "min": [
        0.001027006539516151,
        0.0008333795703947544
      ],
      "type": "VEC2"
    },
    {
      "bufferView": 1,
      "byteOffset": 127808,
      "componentType": 5126,
      "count": 1997,
      "max": [
        0.9979355931282043,
        0.9987433552742004
      ],
      "min": [
        0.001027006539516151,
        0.0008333795703947544
      ],
      "type": "VEC2"
    },
    {
      "bufferView": 1,
      "byteOffset": 143784,
      "componentType": 5126,
      "count": 1997,
      "max": [
        0.9979355931282043,
        0.9987433552742004
      ],
      "min": [
        0.001027006539516151,
        0.0008333795703947544
      ],
      "type": "VEC2"
    },
    {
      "bufferView": 0,
      "componentType": 5125,
      "count": 6414,
      "type": "SCALAR"
    }
  ],
  "asset": {
    "extras": {
      "author": "wolfgar74 (https://sketchfab.com/wolfgar74)",
      "license": "CC-BY-4.0 (http://creativecommons.org/licenses/by/4.0/)",
      "source": "https://sketchfab.com/3d-models/medieval-table-free-6d4f897c019f4a55aeda23cda6e6fb57",
      "title": "Medieval Table (Free)"
    },
    "generator": "Sketchfab-12.68.0",
    "version": "2.0"
  },
  "bufferViews": [
    {
      "buffer": 0,
      "byteLength": 25656,
      "name": "floatBufferViews",
      "target": 34963
    },
    {
      "buffer": 0,
      "byteLength": 159760,
      "byteOffset": 25656,
      "byteStride": 8,
      "name": "floatBufferViews",
      "target": 34962
    },
    {
      "buffer": 0,
      "byteLength": 47928,
      "byteOffset": 185416,
      "byteStride": 12,
      "name": "floatBufferViews",
      "target": 34962
    },
    {
      "buffer": 0,
      "byteLength": 31952,
      "byteOffset": 233344,
      "byteStride": 16,
      "name": "floatBufferViews",
      "target": 34962
    }
  ],
  "buffers": [
    {
      "byteLength": 265296,
      "uri": "scene.bin"
    }
  ],
  "images": [
    {
      "uri": "textures/EA_PrimitiveTable_baseColor.png"
    },
    {
      "uri": "textures/EA_PrimitiveTable_metallicRoughness.png"
    },
    {
      "uri": "textures/EA_PrimitiveTable_normal.png"
    }
  ],
  "materials": [
    {
      "doubleSided": true,
      "name": "EA_PrimitiveTable",
      "normalTexture": {
        "index": 2
      },
      "pbrMetallicRoughness": {
        "baseColorTexture": {
          "index": 0
        },
        "metallicFactor": 0.0,
        "metallicRoughnessTexture": {
          "index": 1
        }
      }
    }
  ],
  "meshes": [
    {
      "name": "EA_PrimitiveTable_EA_PrimitiveTable_0",
      "primitives": [
        {
          "attributes": {
            "NORMAL": 1,
            "POSITION": 0,
            "TANGENT": 2,
            "TEXCOORD_0": 3,
            "TEXCOORD_1": 4,
            "TEXCOORD_2": 5,
            "TEXCOORD_3": 6,
            "TEXCOORD_4": 7,
            "TEXCOORD_5": 8,
            "TEXCOORD_6": 9,
            "TEXCOORD_7": 10,
            "TEXCOORD_8": 11,
            "TEXCOORD_9": 12
          },
          "indices": 13,
          "material": 0,
          "mode": 4
        }
      ]
    }
  ],
  "nodes": [
    {
      "children": [
        1
      ],
      "matrix": [
        1.0,
        0.0,
        0.0,
        0.0,
        0.0,
        2.220446049250313e-16,
        -1.0,
        0.0,
        0.0,
        1.0,
        2.220446049250313e-16,
        0.0,
        0.0,
        0.0,
        0.0,
        1.0
      ],
      "name": "Sketchfab_model"
    },
    {
      "children": [
        2
      ],
      "matrix": [
        1.0,
        0.0,
        0.0,
        0.0,
        0.0,
        0.0,
        1.0,
        0.0,
        0.0,
        -1.0,
        0.0,
        0.0,
        0.0,
        0.0,
        0.0,
        1.0
      ],
      "name": "PrimitiveTable.fbx"
    },
    {
      "children": [
        3
      ],
      "name": "RootNode"
    },
    {
      "children": [
        4
      ],
      "matrix": [
        100.0,
        0.0,
        0.0,
        0.0,
        0.0,
        -1.331580541386046e-05,
        -99.99999999999912,
        0.0,
        0.0,
        99.99999999999912,
        -1.331580541386046e-05,
        0.0,
        0.0,
        0.0,
        0.0,
        1.0
      ],
      "name": "EA_PrimitiveTable"
    },
    {
      "mesh": 0,
      "name": "EA_PrimitiveTable_EA_PrimitiveTable_0"
    }
  ],
  "samplers": [
    {
      "magFilter": 9729,
      "minFilter": 9987,
      "wrapS": 10497,
      "wrapT": 10497
    }
  ],
  "scene": 0,
  "scenes": [
    {
      "name": "Sketchfab_Scene",
      "nodes": [
        0
      ]
    }
  ],
  "textures": [
    {
      "sampler": 0,
      "source": 0
    },
    {
      "sampler": 0,
      "source": 1
    },
    {
      "sampler": 0,
      "source": 2
    }
  ]
}
